<svg xmlns="http://www.w3.org/2000/svg" viewBox="0 0 1200 630" fill="none">
  <defs>
    <linearGradient id="grad" x1="0%" y1="0%" x2="100%" y2="100%">
      <stop offset="0%" style="stop-color:#06b6d4"/>
      <stop offset="50%" style="stop-color:#8b5cf6"/>
      <stop offset="100%" style="stop-color:#10b981"/>
    </linearGradient>
    <linearGradient id="textGrad" x1="0%" y1="0%" x2="100%" y2="0%">
      <stop offset="0%" style="stop-color:#06b6d4"/>
      <stop offset="100%" style="stop-color:#8b5cf6"/>
    </linearGradient>
  </defs>

  <!-- Background -->
  <rect width="1200" height="630" fill="#0a0a0f"/>

  <!-- Subtle grid pattern -->
  <pattern id="grid" width="40" height="40" patternUnits="userSpaceOnUse">
    <path d="M 40 0 L 0 0 0 40" fill="none" stroke="#1a1a2e" stroke-width="1"/>
  </pattern>
  <rect width="1200" height="630" fill="url(#grid)" opacity="0.5"/>

  <!-- Glow effects -->
  <ellipse cx="300" cy="315" rx="300" ry="200" fill="#06b6d4" opacity="0.1"/>
  <ellipse cx="900" cy="315" rx="300" ry="200" fill="#8b5cf6" opacity="0.1"/>

  <!-- Terminal icon -->
  <g transform="translate(80, 180)">
    <rect width="160" height="160" rx="24" fill="#0a0a0f" stroke="url(#grad)" stroke-width="3"/>
    <circle cx="32" cy="32" r="8" fill="#ef4444"/>
    <circle cx="56" cy="32" r="8" fill="#eab308"/>
    <circle cx="80" cy="32" r="8" fill="#22c55e"/>
    <path d="M32 75L56 100L32 125" stroke="url(#grad)" stroke-width="8" stroke-linecap="round" stroke-linejoin="round" fill="none"/>
    <rect x="70" y="92" width="60" height="12" rx="3" fill="url(#grad)"/>
  </g>

  <!-- Command prompt -->
  <text x="280" y="240" font-family="monospace" font-size="36" fill="#06b6d4">❯ azd app</text>

  <!-- Title -->
  <text x="280" y="310" font-family="system-ui, -apple-system, sans-serif" font-size="64" font-weight="700" fill="white">azd app</text>

  <!-- Subtitle -->
  <text x="280" y="370" font-family="system-ui, -apple-system, sans-serif" font-size="28" fill="#a1a1aa">Local Development Orchestrator</text>
  <text x="280" y="410" font-family="system-ui, -apple-system, sans-serif" font-size="22" fill="#71717a">Run, test, and monitor all services with one command</text>

  <!-- Feature badges -->
  <g transform="translate(280, 450)">
    <rect width="150" height="42" rx="21" fill="#06b6d4" fill-opacity="0.15" stroke="#06b6d4" stroke-width="1.5"/>
    <text x="75" y="28" font-family="monospace" font-size="18" fill="#06b6d4" text-anchor="middle">dashboard</text>
  </g>
  <g transform="translate(450, 450)">
    <rect width="130" height="42" rx="21" fill="#8b5cf6" fill-opacity="0.15" stroke="#8b5cf6" stroke-width="1.5"/>
    <text x="65" y="28" font-family="monospace" font-size="18" fill="#8b5cf6" text-anchor="middle">health</text>
  </g>
  <g transform="translate(600, 450)">
    <rect width="110" height="42" rx="21" fill="#10b981" fill-opacity="0.15" stroke="#10b981" stroke-width="1.5"/>
    <text x="55" y="28" font-family="monospace" font-size="18" fill="#10b981" text-anchor="middle">logs</text>
  </g>

  <!-- Author -->
  <text x="280" y="550" font-family="system-ui, -apple-system, sans-serif" font-size="22" fill="#71717a">Azure Developer CLI Extension</text>
</svg>
